# 3ds Max Wavefront OBJ Exporter v0.99 - (c)2007 guruware
# File Created: 03.05.2024 15:50:01

#
# object SM_Bld_Castle_Roof_Cap_Square_08
#

v  2.8813 36.1789 -2.8782
v  2.8813 36.1789 2.8803
v  6.7368 8.7653 6.7381
v  6.7368 8.7653 -6.7355
v  -2.8814 36.1789 -2.8782
v  -6.7371 8.7653 -6.7355
v  -2.8814 36.1789 2.8803
v  -6.7371 8.7653 6.7381
v  -0.0003 -0.0000 0.0010
v  -10.0734 -0.0000 10.0743
v  -10.0734 0.0000 -10.0717
v  10.0731 0.0000 -10.0717
v  10.0731 -0.0000 10.0743
v  -0.0001 63.8585 1.6425
v  1.8286 61.1913 1.8259
v  1.5652 64.4693 1.5633
v  1.6435 63.8585 0.0009
v  1.8286 61.1913 -1.8240
v  1.5652 64.4693 -1.5611
v  -0.0001 63.8585 -1.6400
v  -1.8285 61.1913 -1.8240
v  -1.5653 64.4693 -1.5611
v  -1.6437 63.8585 0.0009
v  -1.8285 61.1913 1.8259
v  -1.5653 64.4693 1.5633
v  2.9207 66.0866 2.9165
v  -0.0003 66.0866 4.0910
v  4.0948 66.0866 0.0007
v  2.9207 66.0866 -2.9138
v  -0.0003 66.0866 -4.0877
v  -2.9210 66.0866 -2.9138
v  -4.0955 66.0866 0.0007
v  -2.9210 66.0866 2.9165
v  2.7608 69.5477 2.7569
v  -0.0003 69.5477 3.8671
v  3.8707 69.5477 0.0008
v  2.7608 69.5477 -2.7542
v  -0.0003 69.5477 -3.8638
v  -2.7612 69.5477 -2.7542
v  -3.8713 69.5477 0.0008
v  -2.7612 69.5477 2.7569
v  -0.0003 71.6147 1.5087
v  -1.0769 71.6147 1.0758
v  1.0764 71.6147 1.0758
v  1.5092 71.6147 0.0010
v  1.0764 71.6147 -1.0733
v  -0.0003 71.6147 -1.5060
v  -1.0769 71.6147 -1.0733
v  -1.5098 71.6147 0.0010
v  -0.0003 108.2049 1.1629
v  -0.8299 108.2049 0.8293
v  0.8294 108.2049 0.8293
v  1.1629 108.2049 0.0011
v  0.8294 108.2049 -0.8267
v  -0.0003 108.2049 -1.1602
v  -0.8299 108.2049 -0.8267
v  -1.1635 108.2049 0.0011
v  -0.0003 110.3820 2.7055
v  -1.9316 110.3820 1.9288
v  1.9313 110.3820 1.9288
v  2.7077 110.3820 0.0008
v  1.9313 110.3820 -1.9265
v  -0.0003 110.3820 -2.7027
v  -1.9316 110.3820 -1.9265
v  -2.7082 110.3820 0.0008
v  -0.0003 112.3184 2.0679
v  -1.4762 112.3184 1.4744
v  1.4758 112.3184 1.4744
v  2.0692 112.3184 0.0009
v  1.4758 112.3184 -1.4719
v  -0.0003 112.3184 -2.0651
v  -1.4762 112.3184 -1.4719
v  -2.0697 112.3184 0.0009
v  -0.0002 113.6448 0.0012
# 74 vertices

vn 0.9903 0.1393 0.0000
vn 0.0000 0.1393 -0.9902
vn -0.9903 0.1393 0.0000
vn 0.0000 0.1394 0.9902
vn 0.0000 -1.0000 -0.0000
vn 0.0187 0.0813 0.9965
vn 0.9965 0.0815 0.0181
vn 0.9965 0.0815 -0.0181
vn 0.0185 0.0814 -0.9965
vn -0.0185 0.0814 -0.9965
vn -0.9965 0.0815 -0.0182
vn -0.9965 0.0815 0.0182
vn -0.0187 0.0813 0.9965
vn 0.2755 -0.7232 0.6333
vn 0.6329 -0.7235 0.2757
vn 0.6328 -0.7235 -0.2758
vn 0.2754 -0.7231 -0.6335
vn -0.2754 -0.7231 -0.6335
vn -0.6328 -0.7236 -0.2758
vn -0.6328 -0.7236 0.2757
vn -0.2755 -0.7232 0.6333
vn 0.3724 0.0599 0.9261
vn 0.9259 0.0600 0.3729
vn 0.9259 0.0600 -0.3730
vn 0.3722 0.0599 -0.9262
vn -0.3723 0.0599 -0.9262
vn -0.9259 0.0600 -0.3731
vn -0.9259 0.0600 0.3730
vn -0.3724 0.0599 0.9261
vn 0.0000 0.3557 -0.9346
vn -0.9346 0.3557 0.0000
vn 0.0000 0.3557 0.9346
vn 0.9346 0.3557 0.0000
vn 0.0000 0.0686 0.9976
vn 0.9976 0.0692 0.0000
vn 0.0000 0.0688 -0.9976
vn -0.9976 0.0691 0.0000
vn 0.0000 0.0421 0.9991
vn -0.9991 0.0421 0.0000
vn 0.0000 0.0421 -0.9991
vn 0.9991 0.0421 0.0000
vn -0.2562 0.7269 0.6371
vn 0.2562 0.7269 0.6371
vn 0.6366 0.7273 0.2564
vn 0.6366 0.7273 -0.2565
vn 0.2561 0.7269 -0.6372
vn -0.2561 0.7269 -0.6372
vn -0.6366 0.7273 -0.2565
vn -0.6366 0.7273 0.2564
vn -0.3731 0.0088 0.9278
vn 0.3731 0.0088 0.9278
vn 0.9276 0.0088 0.3735
vn 0.9275 0.0088 -0.3737
vn 0.3729 0.0088 -0.9278
vn -0.3729 0.0088 -0.9278
vn -0.9275 0.0088 -0.3737
vn -0.9275 0.0088 0.3736
vn -0.3118 -0.5493 0.7753
vn 0.3117 -0.5493 0.7753
vn 0.7749 -0.5498 0.3120
vn 0.7748 -0.5498 -0.3121
vn 0.3116 -0.5493 -0.7753
vn -0.3116 -0.5493 -0.7753
vn -0.7748 -0.5498 -0.3122
vn -0.7748 -0.5497 0.3121
vn -0.3568 0.2922 0.8873
vn 0.3568 0.2922 0.8873
vn 0.8870 0.2925 0.3572
vn 0.8870 0.2925 -0.3573
vn 0.3566 0.2922 -0.8874
vn -0.3567 0.2922 -0.8874
vn -0.8870 0.2925 -0.3574
vn -0.8870 0.2925 0.3573
vn -0.2123 0.8224 0.5278
vn 0.2122 0.8224 0.5278
vn 0.5273 0.8227 0.2124
vn 0.5273 0.8227 -0.2124
vn 0.2122 0.8224 -0.5279
vn -0.2122 0.8224 -0.5279
vn -0.5273 0.8227 -0.2125
vn -0.5273 0.8227 0.2124
# 81 vertex normals

vt 0.6926 0.9913 0.0000
vt 0.6926 0.9926 0.0000
vt 0.6868 0.9934 0.0000
vt 0.6868 0.9905 0.0000
vt 0.6919 0.9916 0.0000
vt 0.6919 0.9928 0.0000
vt 0.6861 0.9937 0.0000
vt 0.6861 0.9908 0.0000
vt 0.6912 0.9906 0.0000
vt 0.6912 0.9894 0.0000
vt 0.6903 0.9911 0.0000
vt 0.6903 0.9912 0.0000
vt 0.6903 0.9957 0.0000
vt 0.6912 0.9951 0.0000
vt 0.6912 0.9938 0.0000
vt 0.6903 0.9928 0.0000
vt 0.6898 0.9942 0.0000
vt 0.6919 0.9920 0.0000
vt 0.6919 0.9963 0.0000
vt 0.6876 0.9963 0.0000
vt 0.6876 0.9920 0.0000
vt 0.6859 0.9903 0.0000
vt 0.6864 0.9907 0.0000
vt 0.6857 0.9906 0.0000
vt 0.6912 0.9921 0.0000
vt 0.6918 0.9918 0.0000
vt 0.6919 0.9921 0.0000
vt 0.6912 0.9914 0.0000
vt 0.6919 0.9914 0.0000
vt 0.6905 0.9924 0.0000
vt 0.6910 0.9920 0.0000
vt 0.6912 0.9924 0.0000
vt 0.6905 0.9916 0.0000
vt 0.6912 0.9917 0.0000
vt 0.6867 0.9938 0.0000
vt 0.6861 0.9942 0.0000
vt 0.6860 0.9938 0.0000
vt 0.6867 0.9946 0.0000
vt 0.6860 0.9945 0.0000
vt 0.6860 0.9941 0.0000
vt 0.6853 0.9941 0.0000
vt 0.6852 0.9939 0.0000
vt 0.6851 0.9942 0.0000
vt 0.6847 0.9943 0.0000
vt 0.6847 0.9937 0.0000
vt 0.6854 0.9943 0.0000
vt 0.6852 0.9948 0.0000
vt 0.6857 0.9944 0.0000
vt 0.6858 0.9948 0.0000
vt 0.6858 0.9941 0.0000
vt 0.6863 0.9943 0.0000
vt 0.6859 0.9938 0.0000
vt 0.6863 0.9936 0.0000
vt 0.6856 0.9937 0.0000
vt 0.6858 0.9932 0.0000
vt 0.6853 0.9936 0.0000
vt 0.6852 0.9932 0.0000
vt 0.6935 0.9906 0.0000
vt 0.6874 0.9904 0.0000
vt 0.6874 0.9911 0.0000
vt 0.6935 0.9913 0.0000
vt 0.6920 0.9937 0.0000
vt 0.6920 0.9931 0.0000
vt 0.6927 0.9931 0.0000
vt 0.6927 0.9937 0.0000
vt 0.6920 0.9925 0.0000
vt 0.6927 0.9925 0.0000
vt 0.6911 0.9909 0.0000
vt 0.6911 0.9903 0.0000
vt 0.6918 0.9903 0.0000
vt 0.6918 0.9909 0.0000
vt 0.6911 0.9897 0.0000
vt 0.6918 0.9897 0.0000
vt 0.6929 0.9897 0.0000
vt 0.6929 0.9903 0.0000
vt 0.6922 0.9903 0.0000
vt 0.6922 0.9897 0.0000
vt 0.6929 0.9909 0.0000
vt 0.6922 0.9909 0.0000
vt 0.6929 0.9906 0.0000
vt 0.6929 0.9913 0.0000
vt 0.6842 0.9944 0.0000
vt 0.6842 0.9901 0.0000
vt 0.6922 0.9904 0.0000
vt 0.6922 0.9919 0.0000
vt 0.6922 0.9921 0.0000
vt 0.6922 0.9964 0.0000
vt 0.6850 0.9941 0.0000
vt 0.6850 0.9898 0.0000
vt 0.6904 0.9912 0.0000
vt 0.6898 0.9912 0.0000
vt 0.6900 0.9908 0.0000
vt 0.6902 0.9908 0.0000
vt 0.6893 0.9908 0.0000
vt 0.6898 0.9906 0.0000
vt 0.6893 0.9902 0.0000
vt 0.6898 0.9903 0.0000
vt 0.6898 0.9897 0.0000
vt 0.6900 0.9902 0.0000
vt 0.6904 0.9897 0.0000
vt 0.6902 0.9902 0.0000
vt 0.6909 0.9901 0.0000
vt 0.6904 0.9903 0.0000
vt 0.6909 0.9908 0.0000
vt 0.6904 0.9906 0.0000
vt 0.6933 0.9925 0.0000
vt 0.6933 0.9927 0.0000
vt 0.6856 0.9927 0.0000
vt 0.6856 0.9926 0.0000
vt 0.6933 0.9930 0.0000
vt 0.6856 0.9929 0.0000
vt 0.6933 0.9912 0.0000
vt 0.6933 0.9914 0.0000
vt 0.6856 0.9914 0.0000
vt 0.6856 0.9912 0.0000
vt 0.6933 0.9916 0.0000
vt 0.6856 0.9916 0.0000
vt 0.6873 0.9909 0.0000
vt 0.6873 0.9907 0.0000
vt 0.6882 0.9901 0.0000
vt 0.6882 0.9903 0.0000
vt 0.6873 0.9904 0.0000
vt 0.6882 0.9899 0.0000
vt 0.6872 0.9916 0.0000
vt 0.6872 0.9919 0.0000
vt 0.6862 0.9921 0.0000
vt 0.6862 0.9919 0.0000
vt 0.6872 0.9921 0.0000
vt 0.6862 0.9922 0.0000
vt 0.6851 0.9927 0.0000
vt 0.6851 0.9923 0.0000
vt 0.6851 0.9932 0.0000
vt 0.6851 0.9914 0.0000
vt 0.6851 0.9910 0.0000
vt 0.6851 0.9918 0.0000
vt 0.6887 0.9901 0.0000
vt 0.6887 0.9905 0.0000
vt 0.6887 0.9897 0.0000
vt 0.6857 0.9921 0.0000
vt 0.6857 0.9917 0.0000
vt 0.6857 0.9925 0.0000
vt 0.6847 0.9927 0.0000
vt 0.6847 0.9924 0.0000
vt 0.6847 0.9931 0.0000
vt 0.6847 0.9914 0.0000
vt 0.6847 0.9911 0.0000
vt 0.6847 0.9917 0.0000
vt 0.6891 0.9901 0.0000
vt 0.6891 0.9904 0.0000
vt 0.6891 0.9898 0.0000
vt 0.6853 0.9921 0.0000
vt 0.6853 0.9918 0.0000
vt 0.6853 0.9924 0.0000
vt 0.6882 0.9920 0.0000
vt 0.6879 0.9920 0.0000
vt 0.6880 0.9916 0.0000
vt 0.6876 0.9918 0.0000
vt 0.6876 0.9914 0.0000
vt 0.6879 0.9912 0.0000
vt 0.6882 0.9912 0.0000
vt 0.6884 0.9914 0.0000
vt 0.6884 0.9918 0.0000
# 162 texture coords

o SM_Bld_Castle_Roof_Cap_Square_08
g SM_Bld_Castle_Roof_Cap_Square_08
f 1/1/1 2/2/1 3/3/1 
f 3/3/1 4/4/1 1/1/1 
f 5/5/2 1/6/2 4/7/2 
f 4/7/2 6/8/2 5/5/2 
f 7/9/3 5/10/3 6/11/3 
f 6/11/3 8/12/3 7/9/3 
f 3/13/4 2/14/4 7/15/4 
f 7/15/4 8/16/4 3/13/4 
f 9/17/5 10/18/5 11/19/5 
f 9/17/5 11/19/5 12/20/5 
f 9/17/5 12/20/5 13/21/5 
f 9/17/5 13/21/5 10/18/5 
f 14/22/6 15/23/6 16/24/6 
f 15/25/7 17/26/7 16/27/7 
f 17/26/8 18/28/8 19/29/8 
f 18/30/9 20/31/9 19/32/9 
f 20/31/10 21/33/10 22/34/10 
f 21/35/11 23/36/11 22/37/11 
f 23/36/12 24/38/12 25/39/12 
f 24/40/13 14/22/13 25/41/13 
f 14/42/14 16/43/14 26/44/14 
f 26/44/14 27/45/14 14/42/14 
f 16/43/15 17/46/15 28/47/15 
f 28/47/15 26/44/15 16/43/15 
f 17/46/16 19/48/16 29/49/16 
f 29/49/16 28/47/16 17/46/16 
f 19/48/17 20/50/17 30/51/17 
f 30/51/17 29/49/17 19/48/17 
f 20/50/18 22/52/18 31/53/18 
f 31/53/18 30/51/18 20/50/18 
f 22/52/19 23/54/19 32/55/19 
f 32/55/19 31/53/19 22/52/19 
f 23/54/20 25/56/20 33/57/20 
f 33/57/20 32/55/20 23/54/20 
f 25/56/21 14/42/21 27/45/21 
f 27/45/21 33/57/21 25/56/21 
f 27/58/22 26/59/22 34/60/22 
f 34/60/22 35/61/22 27/58/22 
f 26/62/23 28/63/23 36/64/23 
f 36/64/23 34/65/23 26/62/23 
f 28/63/24 29/66/24 37/67/24 
f 37/67/24 36/64/24 28/63/24 
f 29/68/25 30/69/25 38/70/25 
f 38/70/25 37/71/25 29/68/25 
f 30/69/26 31/72/26 39/73/26 
f 39/73/26 38/70/26 30/69/26 
f 31/74/27 32/75/27 40/76/27 
f 40/76/27 39/77/27 31/74/27 
f 32/75/28 33/78/28 41/79/28 
f 41/79/28 40/76/28 32/75/28 
f 33/80/29 27/58/29 35/61/29 
f 35/61/29 41/81/29 33/80/29 
f 4/7/30 12/82/30 11/83/30 
f 11/83/30 6/8/30 4/7/30 
f 6/11/31 11/84/31 10/85/31 
f 10/85/31 8/12/31 6/11/31 
f 8/16/32 10/86/32 13/87/32 
f 13/87/32 3/13/32 8/16/32 
f 13/88/33 12/89/33 4/4/33 
f 4/4/33 3/3/33 13/88/33 
f 14/22/34 24/40/34 15/23/34 
f 17/26/35 15/25/35 18/28/35 
f 20/31/36 18/30/36 21/33/36 
f 23/36/37 21/35/37 24/38/37 
f 7/15/38 2/14/38 15/23/38 
f 15/23/38 24/40/38 7/15/38 
f 5/10/39 7/9/39 24/38/39 
f 24/38/39 21/35/39 5/10/39 
f 1/6/40 5/5/40 21/33/40 
f 21/33/40 18/30/40 1/6/40 
f 2/2/41 1/1/41 18/28/41 
f 18/28/41 15/25/41 2/2/41 
f 41/90/42 35/91/42 42/92/42 
f 42/92/42 43/93/42 41/90/42 
f 35/91/43 34/94/43 44/95/43 
f 44/95/43 42/92/43 35/91/43 
f 34/94/44 36/96/44 45/97/44 
f 45/97/44 44/95/44 34/94/44 
f 36/96/45 37/98/45 46/99/45 
f 46/99/45 45/97/45 36/96/45 
f 37/98/46 38/100/46 47/101/46 
f 47/101/46 46/99/46 37/98/46 
f 38/100/47 39/102/47 48/103/47 
f 48/103/47 47/101/47 38/100/47 
f 39/102/48 40/104/48 49/105/48 
f 49/105/48 48/103/48 39/102/48 
f 40/104/49 41/90/49 43/93/49 
f 43/93/49 49/105/49 40/104/49 
f 43/106/50 42/107/50 50/108/50 
f 50/108/50 51/109/50 43/106/50 
f 42/107/51 44/110/51 52/111/51 
f 52/111/51 50/108/51 42/107/51 
f 44/112/52 45/113/52 53/114/52 
f 53/114/52 52/115/52 44/112/52 
f 45/113/53 46/116/53 54/117/53 
f 54/117/53 53/114/53 45/113/53 
f 46/118/54 47/119/54 55/120/54 
f 55/120/54 54/121/54 46/118/54 
f 47/119/55 48/122/55 56/123/55 
f 56/123/55 55/120/55 47/119/55 
f 48/124/56 49/125/56 57/126/56 
f 57/126/56 56/127/56 48/124/56 
f 49/125/57 43/128/57 51/129/57 
f 51/129/57 57/126/57 49/125/57 
f 51/109/58 50/108/58 58/130/58 
f 58/130/58 59/131/58 51/109/58 
f 50/108/59 52/111/59 60/132/59 
f 60/132/59 58/130/59 50/108/59 
f 52/115/60 53/114/60 61/133/60 
f 61/133/60 60/134/60 52/115/60 
f 53/114/61 54/117/61 62/135/61 
f 62/135/61 61/133/61 53/114/61 
f 54/121/62 55/120/62 63/136/62 
f 63/136/62 62/137/62 54/121/62 
f 55/120/63 56/123/63 64/138/63 
f 64/138/63 63/136/63 55/120/63 
f 56/127/64 57/126/64 65/139/64 
f 65/139/64 64/140/64 56/127/64 
f 57/126/65 51/129/65 59/141/65 
f 59/141/65 65/139/65 57/126/65 
f 59/131/66 58/130/66 66/142/66 
f 66/142/66 67/143/66 59/131/66 
f 58/130/67 60/132/67 68/144/67 
f 68/144/67 66/142/67 58/130/67 
f 60/134/68 61/133/68 69/145/68 
f 69/145/68 68/146/68 60/134/68 
f 61/133/69 62/135/69 70/147/69 
f 70/147/69 69/145/69 61/133/69 
f 62/137/70 63/136/70 71/148/70 
f 71/148/70 70/149/70 62/137/70 
f 63/136/71 64/138/71 72/150/71 
f 72/150/71 71/148/71 63/136/71 
f 64/140/72 65/139/72 73/151/72 
f 73/151/72 72/152/72 64/140/72 
f 65/139/73 59/141/73 67/153/73 
f 67/153/73 73/151/73 65/139/73 
f 67/154/74 66/155/74 74/156/74 
f 66/155/75 68/157/75 74/156/75 
f 68/157/76 69/158/76 74/156/76 
f 69/158/77 70/159/77 74/156/77 
f 70/159/78 71/160/78 74/156/78 
f 71/160/79 72/161/79 74/156/79 
f 72/161/80 73/162/80 74/156/80 
f 73/162/81 67/154/81 74/156/81 
# 144 faces

