# 3ds Max Wavefront OBJ Exporter v0.99 - (c)2007 guruware
# File Created: 03.05.2024 15:48:41

#
# object SM_Bld_Castle_Roof_Cap_Round_03
#

v  16.5916 0.0000 -6.8715
v  12.6988 0.0000 -12.6979
v  12.6988 4.5503 -12.6979
v  16.5916 4.5502 -6.8715
v  6.8723 0.0000 -16.5913
v  6.8723 4.5503 -16.5913
v  0.0000 0.0000 -17.9582
v  0.0000 4.5503 -17.9582
v  -6.8723 0.0000 -16.5913
v  -6.8723 4.5503 -16.5913
v  -12.6988 0.0000 -12.6979
v  -12.6988 4.5503 -12.6979
v  -16.5916 0.0000 -6.8720
v  -16.5916 4.5502 -6.8720
v  -17.9585 0.0000 -0.0000
v  -17.9585 4.5502 0.0000
v  -16.5916 -0.0000 6.8720
v  -16.5916 4.5502 6.8721
v  -12.6988 -0.0000 12.6985
v  -12.6988 4.5502 12.6985
v  -6.8723 -0.0000 16.5919
v  -6.8723 4.5502 16.5919
v  0.0000 -0.0000 17.9587
v  0.0000 4.5502 17.9587
v  6.8723 -0.0000 16.5919
v  6.8723 4.5502 16.5919
v  12.6988 -0.0000 12.6985
v  12.6988 4.5502 12.6985
v  16.5916 -0.0000 6.8748
v  16.5916 4.5502 6.8748
v  17.9579 0.0000 -0.0000
v  17.9579 4.5502 0.0000
v  0.0000 0.0000 -0.0000
v  0.4699 100.6022 0.0011
v  0.3499 100.6022 -0.3485
v  -0.0003 100.6022 0.0011
v  -0.0003 100.6022 -0.4707
v  -0.3510 100.6022 -0.3485
v  -0.4710 100.6022 0.0011
v  -0.3510 100.6022 0.3535
v  -0.0003 100.6022 0.4740
v  0.3499 100.6022 0.3535
v  10.7995 4.7583 -10.7992
v  14.1098 4.7583 -5.8444
v  5.8442 4.7583 -14.1095
v  0.0000 4.7583 -15.2719
v  -5.8447 4.7583 -14.1095
v  -10.7995 4.7583 -10.7992
v  -14.1104 4.7583 -5.8444
v  -15.2727 4.7583 0.0000
v  -14.1104 4.7583 5.8450
v  -10.7995 4.7583 10.7998
v  -5.8447 4.7583 14.1101
v  0.0000 4.7583 15.2724
v  5.8442 4.7583 14.1101
v  10.7995 4.7583 10.7998
v  14.1098 4.7583 5.8455
v  15.2724 4.7583 0.0000
v  9.2775 12.2801 -9.2753
v  12.1217 12.2801 -5.0192
v  5.0205 12.2801 -12.1203
v  0.0000 12.2801 -13.1196
v  -5.0211 12.2801 -12.1203
v  -9.2775 12.2801 -9.2753
v  -12.1219 12.2801 -5.0192
v  -13.1204 12.2801 0.0000
v  -12.1219 12.2801 5.0214
v  -9.2775 12.2801 9.2780
v  -5.0211 12.2801 12.1220
v  0.0000 12.2801 13.1217
v  5.0205 12.2801 12.1220
v  9.2775 12.2801 9.2780
v  12.1217 12.2801 5.0219
v  13.1198 12.2801 0.0000
v  4.9275 18.2959 -4.9264
v  6.6154 18.2959 0.0005
v  -0.0003 18.2959 -6.6146
v  -4.9278 18.2959 -4.9264
v  -6.6160 18.2959 0.0000
v  -4.9278 18.2959 4.9286
v  -0.0003 18.2959 6.6173
v  4.9275 18.2959 4.9286
v  4.9275 22.8552 -4.9264
v  6.6154 22.8552 0.0005
v  -0.0003 22.8552 -6.6146
v  -4.9278 22.8552 -4.9264
v  -6.6160 22.8552 0.0000
v  -4.9278 22.8552 4.9286
v  -0.0003 22.8552 6.6173
v  4.9275 22.8552 4.9286
v  2.7166 23.3478 -2.7103
v  3.6466 23.3478 0.0005
v  -0.0003 23.3478 -3.6403
v  -2.7169 23.3478 -2.7103
v  -3.6471 23.3478 0.0005
v  -2.7169 23.3478 2.7125
v  -0.0003 23.3478 3.6430
v  2.7166 23.3478 2.7125
v  2.7166 33.5052 -2.7103
v  3.6466 33.5052 0.0006
v  -0.0003 33.5052 -3.6403
v  -2.7169 33.5052 -2.7103
v  -3.6471 33.5052 0.0006
v  -2.7169 33.5052 2.7125
v  -0.0003 33.5052 3.6430
v  2.7166 33.5052 2.7125
v  3.8909 36.8060 -3.8885
v  5.2270 36.8060 0.0006
v  -0.0003 36.8060 -5.2275
v  -3.8931 36.8060 -3.8885
v  -5.2278 36.8060 0.0006
v  -3.8931 36.8060 3.8917
v  -0.0003 36.8060 5.2297
v  3.8909 36.8060 3.8917
v  1.9238 38.9845 -1.9221
v  2.5802 38.9845 0.0006
v  -0.0003 38.9845 -2.5772
v  -1.9241 38.9845 -1.9221
v  -2.5813 38.9845 0.0006
v  -1.9241 38.9845 1.9249
v  -0.0003 38.9845 2.5805
v  1.9238 38.9845 1.9249
v  0.8850 85.1139 -0.8847
v  1.1858 85.1139 0.0011
v  -0.0003 85.1139 -1.1798
v  -0.8855 85.1139 -0.8847
v  -1.1866 85.1139 0.0011
v  -0.8855 85.1139 0.8891
v  -0.0003 85.1139 1.1831
v  0.8850 85.1139 0.8891
v  1.6873 86.8811 -1.6789
v  2.2611 86.8811 0.0011
v  0.0000 86.8811 -2.2647
v  -1.6881 86.8811 -1.6789
v  -2.2617 86.8811 0.0011
v  -1.6881 86.8811 1.6849
v  0.0000 86.8811 2.2696
v  1.6873 86.8811 1.6849
v  0.5490 88.5481 -0.5460
v  0.7377 88.5481 0.0011
v  -0.0003 88.5481 -0.7369
v  -0.5493 88.5481 -0.5460
v  -0.7385 88.5481 0.0011
v  -0.5493 88.5481 0.5509
v  -0.0003 88.5481 0.7467
v  0.5490 88.5481 0.5509
# 146 vertices

vn 0.8315 0.0000 -0.5555
vn 0.5556 0.0000 -0.8315
vn 0.1951 0.0000 -0.9808
vn -0.1951 0.0000 -0.9808
vn -0.5556 0.0000 -0.8315
vn -0.8315 0.0000 -0.5556
vn -0.9808 0.0000 -0.1951
vn -0.9808 -0.0000 0.1951
vn -0.8315 -0.0000 0.5555
vn -0.5556 -0.0000 0.8315
vn -0.1951 -0.0000 0.9808
vn 0.1951 -0.0000 0.9808
vn 0.5556 -0.0000 0.8315
vn 0.8314 -0.0000 0.5557
vn 0.9808 -0.0000 0.1949
vn 0.9808 0.0000 -0.1950
vn 0.0000 -1.0000 -0.0000
vn 0.0000 1.0000 0.0000
vn 0.0655 0.9969 -0.0437
vn 0.0437 0.9969 -0.0655
vn 0.0154 0.9969 -0.0772
vn -0.0154 0.9969 -0.0772
vn -0.0437 0.9969 -0.0655
vn -0.0655 0.9969 -0.0437
vn -0.0772 0.9969 -0.0154
vn -0.0772 0.9969 0.0154
vn -0.0655 0.9969 0.0437
vn -0.0437 0.9969 0.0655
vn -0.0154 0.9969 0.0772
vn 0.0154 0.9969 0.0772
vn 0.0437 0.9969 0.0655
vn 0.0655 0.9969 0.0437
vn 0.0772 0.9969 0.0154
vn 0.0772 0.9969 -0.0154
vn 0.8005 0.2703 -0.5349
vn 0.5349 0.2703 -0.8005
vn 0.1879 0.2702 -0.9443
vn -0.1879 0.2702 -0.9443
vn -0.5349 0.2703 -0.8005
vn -0.8005 0.2703 -0.5349
vn -0.9443 0.2702 -0.1878
vn -0.9443 0.2702 0.1878
vn -0.8005 0.2702 0.5349
vn -0.5349 0.2702 0.8006
vn -0.1879 0.2701 0.9443
vn 0.1879 0.2701 0.9443
vn 0.5348 0.2702 0.8006
vn 0.8005 0.2702 0.5349
vn 0.9443 0.2702 0.1878
vn 0.9443 0.2702 -0.1878
vn 0.6095 0.7335 -0.3008
vn 0.3008 0.7335 -0.6095
vn 0.1339 0.7276 -0.6728
vn -0.1339 0.7276 -0.6729
vn -0.3008 0.7335 -0.6095
vn -0.6095 0.7335 -0.3008
vn -0.6729 0.7275 -0.1339
vn -0.6729 0.7275 0.1338
vn -0.6095 0.7335 0.3008
vn -0.3008 0.7335 0.6095
vn -0.1340 0.7275 0.6729
vn 0.1340 0.7275 0.6729
vn 0.3008 0.7335 0.6095
vn 0.6095 0.7335 0.3008
vn 0.6729 0.7275 0.1337
vn 0.6729 0.7275 -0.1338
vn 0.9460 0.0000 -0.3241
vn 0.3241 0.0000 -0.9460
vn -0.3241 0.0000 -0.9460
vn -0.9460 0.0000 -0.3242
vn -0.9460 -0.0000 0.3240
vn -0.3242 -0.0000 0.9460
vn 0.3242 -0.0000 0.9460
vn 0.9460 -0.0000 0.3240
vn 0.1634 0.9850 -0.0560
vn 0.0559 0.9850 -0.1632
vn -0.0559 0.9850 -0.1632
vn -0.1634 0.9850 -0.0560
vn -0.1634 0.9850 0.0560
vn -0.0559 0.9850 0.1632
vn 0.0559 0.9850 0.1632
vn 0.1634 0.9850 0.0560
vn 0.9459 0.0000 -0.3245
vn 0.3239 0.0000 -0.9461
vn -0.3239 0.0000 -0.9461
vn -0.9459 0.0000 -0.3246
vn -0.9459 -0.0000 0.3245
vn -0.3241 -0.0000 0.9460
vn 0.3240 -0.0000 0.9460
vn 0.9459 -0.0000 0.3244
vn 0.8616 -0.4124 -0.2958
vn 0.2957 -0.4134 -0.8612
vn -0.2957 -0.4134 -0.8612
vn -0.8616 -0.4126 -0.2957
vn -0.8616 -0.4126 0.2955
vn -0.2956 -0.4135 0.8612
vn 0.2956 -0.4134 0.8612
vn 0.8617 -0.4124 0.2957
vn 0.6213 0.7541 -0.2130
vn 0.2130 0.7543 -0.6211
vn -0.2129 0.7543 -0.6211
vn -0.6212 0.7542 -0.2129
vn -0.6212 0.7542 0.2128
vn -0.2129 0.7543 0.6211
vn 0.2129 0.7542 0.6211
vn 0.6213 0.7541 0.2129
vn 0.9461 0.0286 -0.3225
vn 0.3203 0.0286 -0.9469
vn -0.3203 0.0286 -0.9469
vn -0.9460 0.0286 -0.3228
vn -0.9462 0.0286 0.3224
vn -0.3201 0.0286 0.9469
vn 0.3201 0.0286 0.9470
vn 0.9463 0.0286 0.3221
vn 0.8204 -0.4987 -0.2797
vn 0.2806 -0.4995 -0.8196
vn -0.2806 -0.4995 -0.8196
vn -0.8204 -0.4987 -0.2797
vn -0.8206 -0.4988 0.2791
vn -0.2798 -0.5000 0.8196
vn 0.2799 -0.5000 0.8195
vn 0.8206 -0.4988 0.2791
vn 0.7154 0.6544 -0.2449
vn 0.2480 0.6546 -0.7141
vn -0.2479 0.6546 -0.7142
vn -0.7153 0.6544 -0.2450
vn -0.7155 0.6544 0.2444
vn -0.2492 0.6542 0.7141
vn 0.2492 0.6542 0.7141
vn 0.7156 0.6544 0.2443
vn 0.9453 0.0210 -0.3255
vn 0.3287 0.0209 -0.9442
vn -0.3286 0.0209 -0.9442
vn -0.9451 0.0209 -0.3260
vn -0.9458 0.0209 0.3242
vn -0.3316 0.0211 0.9432
vn 0.3317 0.0211 0.9431
vn 0.9459 0.0210 0.3237
# 138 vertex normals

vt 0.6876 0.9896 0.0000
vt 0.6876 0.9881 0.0000
vt 0.6887 0.9881 0.0000
vt 0.6887 0.9896 0.0000
vt 0.6904 0.9912 0.0000
vt 0.6904 0.9898 0.0000
vt 0.6916 0.9898 0.0000
vt 0.6916 0.9912 0.0000
vt 0.6904 0.9880 0.0000
vt 0.6916 0.9880 0.0000
vt 0.6905 0.9910 0.0000
vt 0.6917 0.9910 0.0000
vt 0.6905 0.9895 0.0000
vt 0.6917 0.9895 0.0000
vt 0.6901 0.9881 0.0000
vt 0.6901 0.9896 0.0000
vt 0.6890 0.9896 0.0000
vt 0.6890 0.9881 0.0000
vt 0.6903 0.9870 0.0000
vt 0.6891 0.9870 0.0000
vt 0.6903 0.9887 0.0000
vt 0.6891 0.9887 0.0000
vt 0.6903 0.9902 0.0000
vt 0.6891 0.9902 0.0000
vt 0.6915 0.9873 0.0000
vt 0.6915 0.9888 0.0000
vt 0.6904 0.9888 0.0000
vt 0.6904 0.9873 0.0000
vt 0.6917 0.9862 0.0000
vt 0.6905 0.9862 0.0000
vt 0.6917 0.9879 0.0000
vt 0.6905 0.9879 0.0000
vt 0.6917 0.9894 0.0000
vt 0.6905 0.9894 0.0000
vt 0.6878 0.9902 0.0000
vt 0.6878 0.9887 0.0000
vt 0.6889 0.9887 0.0000
vt 0.6889 0.9902 0.0000
vt 0.6878 0.9870 0.0000
vt 0.6889 0.9870 0.0000
vt 0.6880 0.9923 0.0000
vt 0.6909 0.9924 0.0000
vt 0.6918 0.9880 0.0000
vt 0.6896 0.9917 0.0000
vt 0.6909 0.9904 0.0000
vt 0.6916 0.9888 0.0000
vt 0.6916 0.9870 0.0000
vt 0.6910 0.9900 0.0000
vt 0.6897 0.9888 0.0000
vt 0.6881 0.9881 0.0000
vt 0.6910 0.9882 0.0000
vt 0.6894 0.9889 0.0000
vt 0.6881 0.9901 0.0000
vt 0.6873 0.9870 0.0000
vt 0.6873 0.9888 0.0000
vt 0.6880 0.9905 0.0000
vt 0.6893 0.9917 0.0000
vt 0.6861 0.9904 0.0000
vt 0.6862 0.9904 0.0000
vt 0.6861 0.9905 0.0000
vt 0.6862 0.9905 0.0000
vt 0.6861 0.9906 0.0000
vt 0.6860 0.9906 0.0000
vt 0.6860 0.9905 0.0000
vt 0.6860 0.9904 0.0000
vt 0.6914 0.9888 0.0000
vt 0.6921 0.9904 0.0000
vt 0.6914 0.9905 0.0000
vt 0.6908 0.9891 0.0000
vt 0.6920 0.9875 0.0000
vt 0.6913 0.9873 0.0000
vt 0.6913 0.9891 0.0000
vt 0.6907 0.9887 0.0000
vt 0.6900 0.9904 0.0000
vt 0.6896 0.9898 0.0000
vt 0.6886 0.9867 0.0000
vt 0.6884 0.9860 0.0000
vt 0.6915 0.9868 0.0000
vt 0.6916 0.9861 0.0000
vt 0.6897 0.9904 0.0000
vt 0.6900 0.9899 0.0000
vt 0.6884 0.9892 0.0000
vt 0.6890 0.9888 0.0000
vt 0.6877 0.9875 0.0000
vt 0.6884 0.9874 0.0000
vt 0.6878 0.9905 0.0000
vt 0.6885 0.9906 0.0000
vt 0.6885 0.9888 0.0000
vt 0.6891 0.9892 0.0000
vt 0.6898 0.9876 0.0000
vt 0.6902 0.9881 0.0000
vt 0.6914 0.9869 0.0000
vt 0.6916 0.9876 0.0000
vt 0.6885 0.9868 0.0000
vt 0.6884 0.9875 0.0000
vt 0.6901 0.9875 0.0000
vt 0.6898 0.9881 0.0000
vt 0.6877 0.9905 0.0000
vt 0.6877 0.9892 0.0000
vt 0.6896 0.9896 0.0000
vt 0.6896 0.9907 0.0000
vt 0.6920 0.9922 0.0000
vt 0.6907 0.9922 0.0000
vt 0.6905 0.9903 0.0000
vt 0.6916 0.9903 0.0000
vt 0.6892 0.9922 0.0000
vt 0.6892 0.9903 0.0000
vt 0.6918 0.9923 0.0000
vt 0.6920 0.9904 0.0000
vt 0.6906 0.9923 0.0000
vt 0.6910 0.9904 0.0000
vt 0.6920 0.9881 0.0000
vt 0.6920 0.9893 0.0000
vt 0.6901 0.9895 0.0000
vt 0.6901 0.9885 0.0000
vt 0.6875 0.9864 0.0000
vt 0.6856 0.9864 0.0000
vt 0.6875 0.9879 0.0000
vt 0.6856 0.9877 0.0000
vt 0.6875 0.9891 0.0000
vt 0.6856 0.9887 0.0000
vt 0.6903 0.9903 0.0000
vt 0.6902 0.9869 0.0000
vt 0.6883 0.9871 0.0000
vt 0.6884 0.9907 0.0000
vt 0.6902 0.9883 0.0000
vt 0.6883 0.9883 0.0000
vt 0.6902 0.9898 0.0000
vt 0.6883 0.9896 0.0000
vt 0.6902 0.9911 0.0000
vt 0.6883 0.9907 0.0000
vt 0.6876 0.9900 0.0000
vt 0.6876 0.9887 0.0000
vt 0.6895 0.9885 0.0000
vt 0.6895 0.9896 0.0000
vt 0.6876 0.9872 0.0000
vt 0.6895 0.9872 0.0000
vt 0.6912 0.9867 0.0000
vt 0.6877 0.9861 0.0000
vt 0.6880 0.9877 0.0000
vt 0.6917 0.9886 0.0000
vt 0.6890 0.9861 0.0000
vt 0.6893 0.9880 0.0000
vt 0.6902 0.9866 0.0000
vt 0.6911 0.9876 0.0000
vt 0.6901 0.9891 0.0000
vt 0.6916 0.9901 0.0000
vt 0.6897 0.9903 0.0000
vt 0.6911 0.9913 0.0000
vt 0.6902 0.9922 0.0000
vt 0.6890 0.9927 0.0000
vt 0.6887 0.9911 0.0000
vt 0.6877 0.9927 0.0000
vt 0.6874 0.9908 0.0000
vt 0.6865 0.9922 0.0000
vt 0.6856 0.9912 0.0000
vt 0.6898 0.9901 0.0000
vt 0.6913 0.9898 0.0000
vt 0.6898 0.9888 0.0000
vt 0.6903 0.9876 0.0000
vt 0.6888 0.9868 0.0000
vt 0.6901 0.9868 0.0000
vt 0.6901 0.9880 0.0000
vt 0.6888 0.9880 0.0000
vt 0.6879 0.9880 0.0000
vt 0.6879 0.9868 0.0000
vt 0.6891 0.9868 0.0000
vt 0.6891 0.9880 0.0000
vt 0.6884 0.9926 0.0000
vt 0.6895 0.9926 0.0000
vt 0.6852 0.9890 0.0000
vt 0.6927 0.9892 0.0000
vt 0.6927 0.9881 0.0000
vt 0.6852 0.9878 0.0000
vt 0.6915 0.9892 0.0000
vt 0.6915 0.9881 0.0000
vt 0.6895 0.9869 0.0000
vt 0.6908 0.9869 0.0000
vt 0.6908 0.9881 0.0000
vt 0.6895 0.9881 0.0000
vt 0.6920 0.9869 0.0000
vt 0.6876 0.9868 0.0000
vt 0.6876 0.9880 0.0000
vt 0.6886 0.9890 0.0000
vt 0.6897 0.9898 0.0000
vt 0.6890 0.9901 0.0000
vt 0.6884 0.9897 0.0000
vt 0.6899 0.9868 0.0000
vt 0.6892 0.9865 0.0000
vt 0.6891 0.9878 0.0000
vt 0.6887 0.9871 0.0000
vt 0.6921 0.9873 0.0000
vt 0.6908 0.9872 0.0000
vt 0.6915 0.9869 0.0000
vt 0.6908 0.9859 0.0000
vt 0.6915 0.9861 0.0000
vt 0.6914 0.9892 0.0000
vt 0.6917 0.9899 0.0000
vt 0.6896 0.9902 0.0000
vt 0.6896 0.9909 0.0000
vt 0.6918 0.9910 0.0000
vt 0.6918 0.9903 0.0000
vt 0.6895 0.9912 0.0000
vt 0.6888 0.9912 0.0000
vt 0.6888 0.9887 0.0000
vt 0.6895 0.9887 0.0000
vt 0.6881 0.9912 0.0000
vt 0.6881 0.9887 0.0000
vt 0.6861 0.9882 0.0000
vt 0.6861 0.9875 0.0000
vt 0.6887 0.9875 0.0000
vt 0.6887 0.9882 0.0000
vt 0.6861 0.9868 0.0000
vt 0.6887 0.9868 0.0000
vt 0.6898 0.9865 0.0000
vt 0.6905 0.9865 0.0000
vt 0.6905 0.9891 0.0000
vt 0.6898 0.9891 0.0000
vt 0.6912 0.9865 0.0000
vt 0.6912 0.9891 0.0000
vt 0.6896 0.9895 0.0000
vt 0.6918 0.9896 0.0000
vt 0.6909 0.9913 0.0000
vt 0.6909 0.9903 0.0000
vt 0.6888 0.9878 0.0000
vt 0.6898 0.9878 0.0000
vt 0.6878 0.9878 0.0000
vt 0.6896 0.9875 0.0000
vt 0.6896 0.9885 0.0000
vt 0.6896 0.9865 0.0000
vt 0.6905 0.9899 0.0000
vt 0.6895 0.9899 0.0000
vt 0.6915 0.9899 0.0000
vt 0.6909 0.9893 0.0000
vt 0.6850 0.9902 0.0000
vt 0.6856 0.9894 0.0000
vt 0.6859 0.9900 0.0000
vt 0.6856 0.9904 0.0000
vt 0.6866 0.9893 0.0000
vt 0.6864 0.9900 0.0000
vt 0.6875 0.9900 0.0000
vt 0.6868 0.9903 0.0000
vt 0.6875 0.9910 0.0000
vt 0.6868 0.9908 0.0000
vt 0.6868 0.9918 0.0000
vt 0.6865 0.9912 0.0000
vt 0.6858 0.9919 0.0000
vt 0.6860 0.9912 0.0000
vt 0.6850 0.9912 0.0000
vt 0.6856 0.9909 0.0000
vt 0.6871 0.9872 0.0000
vt 0.6874 0.9898 0.0000
vt 0.6872 0.9898 0.0000
vt 0.6855 0.9871 0.0000
vt 0.6855 0.9866 0.0000
vt 0.6919 0.9864 0.0000
vt 0.6919 0.9866 0.0000
vt 0.6855 0.9861 0.0000
vt 0.6919 0.9862 0.0000
vt 0.6866 0.9917 0.0000
vt 0.6861 0.9917 0.0000
vt 0.6861 0.9864 0.0000
vt 0.6864 0.9864 0.0000
vt 0.6857 0.9917 0.0000
vt 0.6859 0.9864 0.0000
vt 0.6849 0.9871 0.0000
vt 0.6853 0.9871 0.0000
vt 0.6854 0.9898 0.0000
vt 0.6852 0.9898 0.0000
vt 0.6858 0.9871 0.0000
vt 0.6857 0.9898 0.0000
vt 0.6866 0.9872 0.0000
vt 0.6870 0.9898 0.0000
vt 0.6876 0.9903 0.0000
vt 0.6872 0.9903 0.0000
vt 0.6924 0.9864 0.0000
vt 0.6924 0.9868 0.0000
vt 0.6924 0.9860 0.0000
vt 0.6862 0.9907 0.0000
vt 0.6867 0.9907 0.0000
vt 0.6858 0.9907 0.0000
vt 0.6854 0.9902 0.0000
vt 0.6859 0.9902 0.0000
vt 0.6874 0.9907 0.0000
vt 0.6872 0.9907 0.0000
vt 0.6887 0.9862 0.0000
vt 0.6887 0.9864 0.0000
vt 0.6887 0.9861 0.0000
vt 0.6862 0.9902 0.0000
vt 0.6864 0.9902 0.0000
vt 0.6861 0.9902 0.0000
vt 0.6854 0.9906 0.0000
vt 0.6853 0.9906 0.0000
vt 0.6856 0.9906 0.0000
vt 0.6871 0.9907 0.0000
vt 0.6878 0.9919 0.0000
vt 0.6918 0.9862 0.0000
vt 0.6918 0.9863 0.0000
vt 0.6918 0.9861 0.0000
vt 0.6862 0.9872 0.0000
vt 0.6863 0.9872 0.0000
vt 0.6861 0.9872 0.0000
vt 0.6860 0.9918 0.0000
vt 0.6859 0.9918 0.0000
vt 0.6861 0.9918 0.0000
vt 0.6877 0.9919 0.0000
# 306 texture coords

o SM_Bld_Castle_Roof_Cap_Round_03
g SM_Bld_Castle_Roof_Cap_Round_03
f 1/1/1 2/2/1 3/3/1 
f 3/3/1 4/4/1 1/1/1 
f 2/5/2 5/6/2 6/7/2 
f 6/7/2 3/8/2 2/5/2 
f 5/6/3 7/9/3 8/10/3 
f 8/10/3 6/7/3 5/6/3 
f 7/9/4 9/11/4 10/12/4 
f 10/12/4 8/10/4 7/9/4 
f 9/11/5 11/13/5 12/14/5 
f 12/14/5 10/12/5 9/11/5 
f 11/15/6 13/16/6 14/17/6 
f 14/17/6 12/18/6 11/15/6 
f 13/16/7 15/19/7 16/20/7 
f 16/20/7 14/17/7 13/16/7 
f 15/19/8 17/21/8 18/22/8 
f 18/22/8 16/20/8 15/19/8 
f 17/21/9 19/23/9 20/24/9 
f 20/24/9 18/22/9 17/21/9 
f 19/25/10 21/26/10 22/27/10 
f 22/27/10 20/28/10 19/25/10 
f 21/26/11 23/29/11 24/30/11 
f 24/30/11 22/27/11 21/26/11 
f 23/29/12 25/31/12 26/32/12 
f 26/32/12 24/30/12 23/29/12 
f 25/31/13 27/33/13 28/34/13 
f 28/34/13 26/32/13 25/31/13 
f 27/35/14 29/36/14 30/37/14 
f 30/37/14 28/38/14 27/35/14 
f 29/36/15 31/39/15 32/40/15 
f 32/40/15 30/37/15 29/36/15 
f 31/39/16 1/1/16 4/4/16 
f 4/4/16 32/40/16 31/39/16 
f 2/41/17 1/42/17 33/43/17 
f 5/44/17 2/41/17 33/43/17 
f 7/45/17 5/44/17 33/43/17 
f 9/46/17 7/45/17 33/43/17 
f 11/47/17 9/46/17 33/43/17 
f 13/48/17 11/47/17 33/43/17 
f 15/49/17 13/48/17 33/43/17 
f 17/50/17 15/49/17 33/43/17 
f 19/51/17 17/50/17 33/43/17 
f 21/52/17 19/51/17 33/43/17 
f 23/53/17 21/52/17 33/43/17 
f 25/54/17 23/53/17 33/43/17 
f 27/55/17 25/54/17 33/43/17 
f 29/56/17 27/55/17 33/43/17 
f 31/57/17 29/56/17 33/43/17 
f 1/42/17 31/57/17 33/43/17 
f 34/58/18 35/59/18 36/60/18 
f 35/59/18 37/61/18 36/60/18 
f 37/61/18 38/62/18 36/60/18 
f 38/62/18 39/63/18 36/60/18 
f 39/63/18 40/64/18 36/60/18 
f 40/64/18 41/65/18 36/60/18 
f 41/65/18 42/65/18 36/60/18 
f 42/65/18 34/58/18 36/60/18 
f 4/66/19 3/67/19 43/68/19 
f 43/68/19 44/69/19 4/66/19 
f 3/67/20 6/70/20 45/71/20 
f 45/71/20 43/68/20 3/67/20 
f 6/70/21 8/72/21 46/73/21 
f 46/73/21 45/71/21 6/70/21 
f 8/72/22 10/74/22 47/75/22 
f 47/75/22 46/73/22 8/72/22 
f 10/74/23 12/76/23 48/77/23 
f 48/77/23 47/75/23 10/74/23 
f 12/76/24 14/78/24 49/79/24 
f 49/79/24 48/77/24 12/76/24 
f 14/78/25 16/80/25 50/81/25 
f 50/81/25 49/79/25 14/78/25 
f 16/80/26 18/82/26 51/83/26 
f 51/83/26 50/81/26 16/80/26 
f 18/82/27 20/84/27 52/85/27 
f 52/85/27 51/83/27 18/82/27 
f 20/84/28 22/86/28 53/87/28 
f 53/87/28 52/85/28 20/84/28 
f 22/86/29 24/88/29 54/89/29 
f 54/89/29 53/87/29 22/86/29 
f 24/88/30 26/90/30 55/91/30 
f 55/91/30 54/89/30 24/88/30 
f 26/90/31 28/92/31 56/93/31 
f 56/93/31 55/91/31 26/90/31 
f 28/92/32 30/94/32 57/95/32 
f 57/95/32 56/93/32 28/92/32 
f 30/94/33 32/96/33 58/97/33 
f 58/97/33 57/95/33 30/94/33 
f 32/96/34 4/66/34 44/69/34 
f 44/69/34 58/97/34 32/96/34 
f 44/98/35 43/99/35 59/100/35 
f 59/100/35 60/101/35 44/98/35 
f 43/102/36 45/103/36 61/104/36 
f 61/104/36 59/105/36 43/102/36 
f 45/103/37 46/106/37 62/107/37 
f 62/107/37 61/104/37 45/103/37 
f 46/106/38 47/108/38 63/109/38 
f 63/109/38 62/107/38 46/106/38 
f 47/108/39 48/110/39 64/111/39 
f 64/111/39 63/109/39 47/108/39 
f 48/112/40 49/113/40 65/114/40 
f 65/114/40 64/115/40 48/112/40 
f 49/113/41 50/116/41 66/117/41 
f 66/117/41 65/114/41 49/113/41 
f 50/116/42 51/118/42 67/119/42 
f 67/119/42 66/117/42 50/116/42 
f 51/118/43 52/120/43 68/121/43 
f 68/121/43 67/119/43 51/118/43 
f 52/122/44 53/123/44 69/124/44 
f 69/124/44 68/125/44 52/122/44 
f 53/123/45 54/126/45 70/127/45 
f 70/127/45 69/124/45 53/123/45 
f 54/126/46 55/128/46 71/129/46 
f 71/129/46 70/127/46 54/126/46 
f 55/128/47 56/130/47 72/131/47 
f 72/131/47 71/129/47 55/128/47 
f 56/132/48 57/133/48 73/134/48 
f 73/134/48 72/135/48 56/132/48 
f 57/133/49 58/136/49 74/137/49 
f 74/137/49 73/134/49 57/133/49 
f 58/136/50 44/98/50 60/101/50 
f 60/101/50 74/137/50 58/136/50 
f 60/138/51 59/139/51 75/140/51 
f 75/140/51 76/141/51 60/138/51 
f 59/139/52 61/142/52 77/143/52 
f 77/143/52 75/140/52 59/139/52 
f 61/142/53 62/144/53 77/143/53 
f 62/144/54 63/145/54 77/143/54 
f 63/145/55 64/46/55 78/146/55 
f 78/146/55 77/143/55 63/145/55 
f 64/46/56 65/147/56 79/148/56 
f 79/148/56 78/146/56 64/46/56 
f 65/147/57 66/149/57 79/148/57 
f 66/149/58 67/150/58 79/148/58 
f 67/150/59 68/151/59 80/152/59 
f 80/152/59 79/148/59 67/150/59 
f 68/151/60 69/153/60 81/154/60 
f 81/154/60 80/152/60 68/151/60 
f 69/153/61 70/155/61 81/154/61 
f 70/155/62 71/156/62 81/154/62 
f 71/156/63 72/157/63 82/158/63 
f 82/158/63 81/154/63 71/156/63 
f 72/157/64 73/159/64 76/141/64 
f 76/141/64 82/158/64 72/157/64 
f 73/159/65 74/160/65 76/141/65 
f 74/160/66 60/138/66 76/141/66 
f 76/161/67 75/162/67 83/163/67 
f 83/163/67 84/164/67 76/161/67 
f 75/165/68 77/166/68 85/167/68 
f 85/167/68 83/168/68 75/165/68 
f 77/166/69 78/169/69 86/170/69 
f 86/170/69 85/167/69 77/166/69 
f 78/171/70 79/172/70 87/173/70 
f 87/173/70 86/174/70 78/171/70 
f 79/172/71 80/175/71 88/176/71 
f 88/176/71 87/173/71 79/172/71 
f 80/177/72 81/178/72 89/179/72 
f 89/179/72 88/180/72 80/177/72 
f 81/178/73 82/181/73 90/112/73 
f 90/112/73 89/179/73 81/178/73 
f 82/182/74 76/161/74 84/164/74 
f 84/164/74 90/183/74 82/182/74 
f 84/184/75 83/185/75 91/186/75 
f 91/186/75 92/187/75 84/184/75 
f 83/185/76 85/188/76 93/189/76 
f 93/189/76 91/186/76 83/185/76 
f 85/188/77 86/190/77 94/191/77 
f 94/191/77 93/189/77 85/188/77 
f 86/190/78 87/43/78 95/192/78 
f 95/192/78 94/191/78 86/190/78 
f 87/43/79 88/193/79 96/194/79 
f 96/194/79 95/192/79 87/43/79 
f 88/193/80 89/195/80 97/196/80 
f 97/196/80 96/194/80 88/193/80 
f 89/195/81 90/197/81 98/198/81 
f 98/198/81 97/196/81 89/195/81 
f 90/197/82 84/184/82 92/187/82 
f 92/187/82 98/198/82 90/197/82 
f 92/199/83 91/200/83 99/201/83 
f 99/201/83 100/202/83 92/199/83 
f 91/203/84 93/204/84 101/205/84 
f 101/205/84 99/206/84 91/203/84 
f 93/204/85 94/207/85 102/208/85 
f 102/208/85 101/205/85 93/204/85 
f 94/209/86 95/210/86 103/211/86 
f 103/211/86 102/212/86 94/209/86 
f 95/210/87 96/213/87 104/214/87 
f 104/214/87 103/211/87 95/210/87 
f 96/215/88 97/216/88 105/217/88 
f 105/217/88 104/218/88 96/215/88 
f 97/216/89 98/219/89 106/220/89 
f 106/220/89 105/217/89 97/216/89 
f 98/221/90 92/199/90 100/202/90 
f 100/202/90 106/222/90 98/221/90 
f 100/202/91 99/201/91 107/223/91 
f 107/223/91 108/224/91 100/202/91 
f 99/206/92 101/205/92 109/225/92 
f 109/225/92 107/226/92 99/206/92 
f 101/205/93 102/208/93 110/227/93 
f 110/227/93 109/225/93 101/205/93 
f 102/212/94 103/211/94 111/228/94 
f 111/228/94 110/229/94 102/212/94 
f 103/211/95 104/214/95 112/230/95 
f 112/230/95 111/228/95 103/211/95 
f 104/218/96 105/217/96 113/231/96 
f 113/231/96 112/232/96 104/218/96 
f 105/217/97 106/220/97 114/233/97 
f 114/233/97 113/231/97 105/217/97 
f 106/222/98 100/202/98 108/224/98 
f 108/224/98 114/234/98 106/222/98 
f 108/235/99 107/236/99 115/237/99 
f 115/237/99 116/238/99 108/235/99 
f 107/236/100 109/239/100 117/240/100 
f 117/240/100 115/237/100 107/236/100 
f 109/239/101 110/241/101 118/242/101 
f 118/242/101 117/240/101 109/239/101 
f 110/241/102 111/243/102 119/244/102 
f 119/244/102 118/242/102 110/241/102 
f 111/243/103 112/245/103 120/246/103 
f 120/246/103 119/244/103 111/243/103 
f 112/245/104 113/247/104 121/248/104 
f 121/248/104 120/246/104 112/245/104 
f 113/247/105 114/249/105 122/250/105 
f 122/250/105 121/248/105 113/247/105 
f 114/249/106 108/235/106 116/238/106 
f 116/238/106 122/250/106 114/249/106 
f 116/251/107 115/136/107 123/252/107 
f 123/252/107 124/253/107 116/251/107 
f 115/254/108 117/255/108 125/256/108 
f 125/256/108 123/257/108 115/254/108 
f 117/255/109 118/258/109 126/259/109 
f 126/259/109 125/256/109 117/255/109 
f 118/260/110 119/261/110 127/262/110 
f 127/262/110 126/263/110 118/260/110 
f 119/261/111 120/264/111 128/265/111 
f 128/265/111 127/262/111 119/261/111 
f 120/266/112 121/267/112 129/268/112 
f 129/268/112 128/269/112 120/266/112 
f 121/267/113 122/270/113 130/271/113 
f 130/271/113 129/268/113 121/267/113 
f 122/272/114 116/251/114 124/253/114 
f 124/253/114 130/273/114 122/272/114 
f 124/253/115 123/252/115 131/274/115 
f 131/274/115 132/275/115 124/253/115 
f 123/257/116 125/256/116 133/276/116 
f 133/276/116 131/277/116 123/257/116 
f 125/256/117 126/259/117 134/278/117 
f 134/278/117 133/276/117 125/256/117 
f 126/263/118 127/262/118 135/279/118 
f 135/279/118 134/280/118 126/263/118 
f 127/262/119 128/265/119 136/281/119 
f 136/281/119 135/279/119 127/262/119 
f 128/269/120 129/268/120 137/282/120 
f 137/282/120 136/235/120 128/269/120 
f 129/268/121 130/271/121 138/283/121 
f 138/283/121 137/282/121 129/268/121 
f 130/273/122 124/253/122 132/275/122 
f 132/275/122 138/242/122 130/273/122 
f 132/275/123 131/274/123 139/284/123 
f 139/284/123 140/285/123 132/275/123 
f 131/277/124 133/276/124 141/286/124 
f 141/286/124 139/287/124 131/277/124 
f 133/276/125 134/278/125 142/288/125 
f 142/288/125 141/286/125 133/276/125 
f 134/280/126 135/279/126 143/289/126 
f 143/289/126 142/290/126 134/280/126 
f 135/279/127 136/281/127 144/291/127 
f 144/291/127 143/289/127 135/279/127 
f 136/235/128 137/282/128 145/292/128 
f 145/292/128 144/293/128 136/235/128 
f 137/282/129 138/283/129 146/294/129 
f 146/294/129 145/292/129 137/282/129 
f 138/242/130 132/275/130 140/285/130 
f 140/285/130 146/295/130 138/242/130 
f 140/285/131 139/284/131 35/296/131 
f 35/296/131 34/296/131 140/285/131 
f 139/287/132 141/286/132 37/297/132 
f 37/297/132 35/298/132 139/287/132 
f 141/286/133 142/288/133 38/299/133 
f 38/299/133 37/297/133 141/286/133 
f 142/290/134 143/289/134 39/300/134 
f 39/300/134 38/301/134 142/290/134 
f 143/289/135 144/291/135 40/302/135 
f 40/302/135 39/300/135 143/289/135 
f 144/293/136 145/292/136 41/303/136 
f 41/303/136 40/304/136 144/293/136 
f 145/292/137 146/294/137 42/305/137 
f 42/305/137 41/303/137 145/292/137 
f 146/295/138 140/285/138 34/296/138 
f 34/296/138 42/306/138 146/295/138 
# 288 faces

